<mxfile host="65bd71144e" pages="1">
    <diagram id="6itaSXMCU1YtvEYhpMld" name="Page-1">
        <mxGraphModel dx="346" dy="451" grid="1" gridSize="10" guides="1" tooltips="1" connect="0" arrows="1" fold="1" page="1" pageScale="1" pageWidth="827" pageHeight="1169" math="0" shadow="0">
            <root>
                <mxCell id="0"/>
                <mxCell id="1" parent="0"/>
                <mxCell id="73" value="" style="group" vertex="1" connectable="0" parent="1">
                    <mxGeometry width="100" height="100" as="geometry"/>
                </mxCell>
                <mxCell id="74" value="" style="shape=image;verticalLabelPosition=bottom;labelBackgroundColor=default;verticalAlign=top;aspect=fixed;imageAspect=0;image=data:image/png,iVBORw0KGgoAAAANSUhEUgAAAGQAAABkCAYAAABw4pVUAAAbCUlEQVR4nO2dz48syXHfPxGZWdU98/YHIZ78rxgSBImktTIE+GIfBZA0BMokJVIg7INPMgxTtmCBNkWaWsHwwQf5Jlg++X+yLe3um+muyswIHyKrume5kiDuzOxbagJYvNl+091VGVkR8f3GN/LBi73Yi73Yi73Yi73Yi73Yi73Yi73Yi73Yi73Yi73Y30d7/3vv+U9+79f8s76OxzL5rC/gZ7UffONX/OZ2BgEzp9XO7asbvvr9//m5vSf4HDrkD77+i7424+3jxDQV3nr7Fa136rJyvDlQl4pk5avf/4vP3b0B6Gd9AX8X+8nv/ponuVyyqoIIIkJOid46kpRaK//1X/3G5zKMfS520fvf/XVfayWnxHmpfHg68/Zx4ng8kLJSSgE3zIycE8tayaVQlxXNma//+//1ubhP+Bw45E+++57PU+H13QmA+2XhtDS++PYtpWQQuLk54ECry3hXwsyx3pnnmQ9e33F7OPC1P3zzHfPGXuCf/t57jgjLuTJNhfvTiZvjgf/7wWvW1vni27ccjzOiQimZ3jtmbbz74pCUMnenE++8esX9+cQ3fvC/39h7hjfQIT/85pe85ISIoEk5LQuHMnF/OnOYJz64P3FeGv/gi++iqsxzpnULxx0mzG3/rL42Uk7cn868+/Yr7u5PaFas2RvrmDcqqf+3f/kbvvaKiFBb7HZVRVXJOdO7Maey//5hvvyMQJkmAHpr9B7vb7UxT4WpFOZ5QpOSS+LPfv+fvZFJ/43YJX/ynfdcBErJ/L8PPmLKGXPj5njgdF44TBPdDTdjXTuvTwuvjgd+4Qtv0+gI0Fsnl4K5sZ5WJAs4WDdweOutW2rvtFbRlMlZefuLX+DD//NX/Oa//fM3Yh3gDXhCfvTtL7vIth6CiqIilJwB0KQ4YO6YOeBMRWk2QpM5CPRmLOtCbw1JAsaovqIsXlujjaduHp8tImjJ/PB3vux/8R+//kY8MZ+ZQ374L37Vf/ztrziAmwWmACAWPanSemfKmdYbuGPdEWKBcUeU4SRAwLuTcuZ4jNCEQDkkRGDzea9GnjKCcPrwjinlPUz8j3/z2Yexz8QhP/zmlxyg5LQ/CS6KjaUx93FxgqBgQqsdREg5xe9joOxJ/Lys+6qXMvHqrVuwTlsa5VA4HCZ6N9599y1wp0yFw/HIcj4zpXifThPvf+89f/97731mjnlWh/zwt7/kf/rdX/fDVPbFm+eJZh2sk7IG+FsjsaeUSEkpJZNSQjUQ+YMbGJ+TkpKLIgKn88LpdGKrt7pZfJ+AqJBzwt0Bwb0zHQ6s64KbYeaoZv78P/zmZ+KUZ3PIj779ZdecqO6srQcp6Jd7djMyjiqIRuAys+G3CFUAvXcg3rucV3JOYE5JCZXElDJ1aZFTTpVUEjLe771GuEqRp6QIoplqHTNHRpi8uT1wuj/xZ7//T/2//+t/8qyOeRaH/MHX/qELW3i53F/rbf85EvsIWeYsdaHVzro2zJxSMm6O2QVnIJBUOL0+kXKilDSc7JScmY8zZk6v4z0eoa31hiZBuZTK+zXVtpfN3o2kzxvVn+3b5qmgAkUvSRQfYWua9xAmKMdpQlzIJQCiYSBRTW2/Z91xc1wTXeO15bxyf3dGi9Kso5rx3sgjRyDxnSkVfBQDdV3ptdPbQlGhlEJrRmtGt/jvOe353B+VKCJCNweDnBOn16dYJzNEFVHZKy53R0um5IyqkFJUV7s5nM4rBhjRE5EkUW2l+AzRCFGRMaJC2wqz3hyzCIGtdhKABbCcdOSqvSR/Hnsmh0Q42r6s99h5beQDv6I7kghZ9cG6AySNkFVK3sOIE057dXNDzhlNSq89sItDW8/sGMct8Mr4ToDz3WuKJpIK01Q4nRdqrRynea/ekgg/+d1/9Gx55FkcMueM5omtqnHvJFXMoIujKjtnoDmekm5O6x2h05vRWt+fMBBqd8qUSTgJx13IOePdaEvl/NEJF0FzojXncJxBMq1XrFXQCFe1d6zFei/rSp4KUpQ2mAEETnV9jmWK+3/qL/gv34ma3sx4kB9F6N34yw8+2l9a1hoXlZSksidwAda6ogit9fg7d0TgME/U1uijVJ5uZrxHYgd4dXtEk7KcG3nKvPvOW0HbEwldBXLJnM9LlMJjY6QUgFKTcnM8PO0iXdmTO6QuDVEBq+jo9gXShu6VnDKrtYjt1ihzocyFlMaiI2gaAFIiV+SUUJGgT1To7pgbgrOuFZ0yOhZ9XVeOxwOSNJ7KZrg5KSdubo/c3S9Mc+J0XkalprRamadCKgXQKDqeyZ7cId37T72WNdOto6KUfEngKWfqeErsY0kk57xjkdbt6vXE+XTmeJg5LyvrupXS8bv3pwUz43i8wd354KM7Xt/dkzRxOp1xd9Z6uUY3xz3AJQxy8hntyR0yj51q5nR3EMHFyapYNzp2wQkWlAZcEDiAZMVF6GaoCJqEpGDNUE07tNGkpCSs64pmwQchuSwLp9M9EMxvSol17fQaOMN65/Y401qntwhbr+9O9NZZagWcH3/neRL7MyT1uI/ejZwuLGvzoEqmXEjjKVEV3KMg2qzVBqL0dcVxSi6oKEnkYSUmgnVjyoUyFVR15C3hfH/P/d1dAMypkFLGulN753xeWZdo9ZpdsZDjs0+n017NPYc9qUP+6Ld+2QGmUmg9FmcrdXNKpJQIyj0WIZfMBthLiSel9X5Vun7y99zcHFnqiojwzhdeYebkrfTtnTIddg4sp7x/XqsXpmA+PswT86HgO3p5vtD1pA6p4yZaM5IouJE1KiUcppw5zrGbmxu9GwHKPZ6igSkY1VZKQs7K5pm2VtZlwXDMg6396H4hq9KacXOcaGuoVU6nhV4N80qtZ6yubAjRgWU1VDwoFQHcWZYVEah15bl6ec8DDIWx2+J/kgZ7uCNyc1ptLMtCTkrvtkeOayC3JXW5WpzuGwVSwT1Q9pyD/c0ZzRtTrJyWNZC4OUttgX8IxhmiWJCPLfzPFZel4ogmbKu0VGnmgdKtgyY6BC3uGrzR1uMQKHMJltYaSIQ5c0c3Z7njCHRnngp9XbHWaWaBTXonJyXNEykn3n7nFRDoe7OkCcywtbIudQ+LooKb07tRW3Rq/vNv/+qTJ5Jnc7+ZB+UtMJUMEjFdgLlMdOtBpQMpZVSUw6jQcALDCIgmNF+JG9iaUpnWOsebA70ZJWeW2nCH9bzQesfNOS0rIkop6UEOAbC2UftQcub2eGQqmXX9OUHqZo4ArTuduFG3DUU77p1aA3eklBDN4IITCkTrNiqpq+pHBupP8VpW3ZN0ygmzKGVzEupA7/E2offGPJdRRIyKjgCX7ao1kMbfqeglTMpPY6OnsCdzyB/91i/7ljLNjaLBKy3ruosVtnDteOSKbWEloWiwuLYxssJ5GdIeN6ZpImCNDLRuHI4Ty3nF3Pjo9Zky+uW9N+Ypc17C+WttXCdpA7rzIBwm+Fge/3lK6sP6Mh790U5ta6OUEig9XUKYDQEDBC0PkEoOCmZsUrOoxDZE3WpnGQteSmZd1ku5PGweoNPMAjRuW2YAHx3CbYDzutIHNf9zQZ1IUsyFc+1kUZbW6Q7TAHYZRVC8O66OJKEkQJy+JfGsnNtKKplth7o5fW2Y9aiOrPPO7S0YqA3qo8Ffnha6RzjSpANxB56IJ6KxrJVujhocVEkl08zohIJFU8JwppLpraMi/KdvfvlJ49aTOUQR0tWOhgu4skEKHo8T0yES9zRl7k+x21UVAQ7TPAhJ2UvUeH8nacZ6yIden+9pLRbc3XGcYykhHWo9KJo2ngKVvbgQAcy4OX7yExDt/BEyN/D6MZHFY9uTOaT3xlwUwXcMMuUEeJS87gH6iF2dk3I+rdQ+cEV3XOE4z9FJFI2r9c40F+idel4Bx5pxvL3hg9d3IYwAvvDqBlGl9giLrbaQkU4zU8kUzRxvZ5beKGX01d3BfZTFgjjU1unmpCygT99AfBYuS1PGBsBbW4tdJtEXBzjff3JZWWsdvXO7AEQJ5hdAcygWX3905jjl/X3zlHF3eutMo0Su4wlKQ9RwPBy4vzv/rVe/hbrNnppCeRKH/OAbv+JbcWtu4B0ZEp+cdA9DkhNJU+zAtGEO35N+Sjn6ItZRjMToowy8cDgeMaLq6hZJ2wzuz41UonFVpoyKkEXISWjnM7lkOsKrt45MKagYSZet392iR2+NKeUx9qDPQjI+iUPKUKgHXZ72MCJb4B5aK9XogXdzvDt5a2ABgpOSkKbL+0FYaxvYQBGNMTYXOJ8rqomclQ9f36MpcZimiyhCHBVlWdaQ+vT4zKSCa5TgmxLFHVIOViGntKfBraH4x0N5+RT2pCFLJIFIyGrMHpShrfdRdl6Y13SVMLd1bM12/W7JaQdqeY7Kp3fnnVfHK82WkATqsu4M7jRlpmnmcDg8YAQA5vmS0M2MUiLPrWuLFm7WB3lj6/c/lT2NQzR0TWGx37PGU1M0BcdULjH/9hDjzYyyd6Pj51QQ92CHExiGuXM4TLhbdB3HHeQpMc1lsMHjGpYavZV+CYlCzCkinbZUJCnToPqLCCWX6N2UHJvCo4NYSiI9cUKHp3LI2EFJ0wMdVWs2GkeRA7ZS1oG1VkpO1LU9eJJSvjjOmpOzPmCAU1Za62hOl/zDwCsWVdN5vSRmVdnHEiAaZxsIFxGsd8yDfum1h+JegtpZ1hp6Y306zzyJQ7bOYBHIKsw5hNJb88k9hHLeGqLR53ARcsroSJ69d0SiJZtEoRP8FUGfTznRa2OaZ/KcOaTEPLBHzsFBtdYi52TBBE7rmSLRMOvniki0b3Flng6kOeF0aIwCwh/gHyfK3606fAp7dIf8YOsSjtDRBojbKJDtVlRlZ1vzlDgMWiNyge99CNtClsQT0pvt0tCt2iq5/I3VjwhDq7VcSVbhvA4gejX7nlLeqZSUH4JAcyhTwXwMpT6BPckT4mZI0HMx66eRkMMuiFdU0RRsbe8WzGvI3of60IbkNKh3LRoE4CYTFXBrTAN37O3hHGFlnkqMNUhiWRv5kFlaMMwuEa5Eldd3HyEShbpuctYh2EsloQK+N822/swTpd/H/kAfrGk4QMCFtY35DAJ/AEGdl0Q3I6Ejj3Q0yV5V9eDHA9mPtqoKMc6A0KxzPjVO9+f9PVPOMSY9CMSUItw58T1mfccUazdq60N05xtQx0R2NWW3ULbITt8o02g7P4U9vS7LCBnoJ4QUIXbzXoaOsbW/neneyuB4MtblkqRbjwW/lhGttZGS8nGMLVc/nc7rjsL1qv2yWUqJ9ERPxbU9+jeIhB6qNqO2CANzDkLPMbJG5bT2iksKljYrOUUi7iN+F01k3YCisq51T6ZTCm7KelDoDjtVbnh0+CR+XpaYBWnnFoma2ARFC+++evvBIrdWaePwgVoNhV1jDNupQwt5Knul+Nj26A7ZckXJn8yKblWLSPSs17WCyK633ayP3brWivtlKDTnh7+Xk1LmFC1ad0rKtGqj8pYHyvrxyl9btj7UecUfrcbAaa2VrJdRuLVWfvw7X3n0xP6oDvnDf/5LXs1ptvWnO+aw9C0Rb9dvlJSYJMYAcCcXhRRclbfY3ee+RonaDEVH2/bSTi05B7e1dF69OkYDa+v4Sch5pkOJnvzYIKKJ1h1SKPJE4neD1kkkzQFqe8yPiAi9OV2C78qa6bWBwe3N8TGXD3gqHDLWpeQQRZeUaK1T6wb6Ll+71kqtjZwypaSYvBX2cLW2yjRNnO+Wq/AyyMeiHAc90q70uVs53D1mD92CxzqdFpIKbX3I4GbVEEK4kZPu5Xi/erq2z38IKh8/bD2qQ1JSam0gwjzHaFiUsiFKMHdwIavQm7HWhiJYCxB4Pq+RE0aTSRCmnGNkYIrxtl4t9FfmrDu4M87LuvNZabDIIrIzztOcyUkBjae3O7W3mNKaCt0v5GYSoVu0CXZd1gCJtVlc2eeh7J1H3yMnjbGBrPQx9YRHFzEYVQE3HIKX6gCJtnS6GZJCctprZz5MuFz637KRt2PzrnXlcDOHVrf2GFXIsv/iPB/IU8yox+sR+pwhcd1KbDN6jwnhnHNwYDJm5Ucpvjk4lUwq6W8Eoz+rPapDard9tm+9epw/KcGrpH0UAXhQ6m6JHkBTol9RFX+dkrC3OMCs1h5no1wNax7mTKuNX/jiF7Ax+buMsPRJmivNF5Zg//xRfQXoHXyZOz/69uMm9kd+7oZDJBZubR01x92GnMfxdBkfqM1o7jSMrInTElNMSRPeLve5ofCUE0uvwcZOQe33Zkwlx+lBVxqsnBJejfV8xpqzthZ8GKGmTCkmdaecqbWxnpZ4IjSEF5IkjgyUyBW9gajupwwF2diZD4+rSHk0h/zkW1/x5rbvqr1yIbiiEFhfpmMh0LNbf7Dr42yTPpgJIScN0dyI4ZdhzEGniNJa4/b2MEpn32U+8DDZv359hxHKyVdv3ezCh31W3dnxhY+nMg6yGfhnui65hY/u7snlWkX56e3RHNI9eCg3OJSJndrdJKBE6ekWGCTleFLENV5T563bw+iZJ+o6lPNrJNe6rLgZtYWoTTTOWuzWYrpKLlJsMx8O0UDgSTlMhfMoV43oMLa64t1ZlzNIyDESl/BapjGSoIImLm0FcVpr3C8r8LiV1iOGrChXS9YIHw4lSWCD+Ov4wvHnddeuX6He5RzSf3cLcbU5rTeaGadz3ZXqEFXdx8VuG5rv42CBax3SdDiQcjj38Nbt9ZVT5svcCDBOGjJEH+a/nBO19gef+5j2aA6J2fKoQiRf8ELKMXqwladbsu09wttxU4i4k0rGCAKxtlGSpjTEzzFSMGUNiV2Kk+aSJNYlyl+3hyqRbX2TAN1o64JcScVEdVRQMd1VB34RopIK9Xw4pPbo/W/T9tadV7cHxOGPv/V4J2s/mkNOa0ckBYNaG5IKIAGebDC2zk6dA9S1oZLJQ2SdcxnHNY1+B4zJq0QeYbD1Rm2VNARvY3o9PnAoUkTi53UAwCiRE22pHI5zlNbmoAlUMJTzsqJXy9qW9pBd6IBepkfcnSQBOu0TBlt/Vns0hwiRaHs3UlEkMfodcdMisoepbrZPQ9Xeqf3hWMCmiO81qraUEt5HUaCXzwD2uH49WrCHrY8t1DR0xHnrpxA64JzGANGmL06XKrzWto/XAZQpYb09CLOPaY/ikB9/6yuDyjOygC2Gd3CJ19YWVc9prdRaOcxxqkMuhe6dwzzhvVFU49zEAR67j0PLxvhC6zYUH9FelSR7UsolYVj02Hun9x6i694ok1COmXKIc7pKznG0U4o+fO1tVGwyhBaCaajwrUXVNk8lpq8k2sHbBFYcZPB4qfhxPkmEMo2G1PaScnWObtjGnG7SrN76cA60up3icNme1z0N4KdCgxCnC0Hgh+0k0+g+XnS4xghvPQTTW6naavROpnliPsR/vRuaoku4E5Wj9C4lMEqUycKcM8t6wT+PYY/ikE20kHLaG0zWKr01VAqtd1SC0jivK4Luao4IX8p5bZASqlCmOFig1YaYXTkoOo5xQlx8RkqxS23QJlkvxwaCkEU5350uAok1np53331FteixlFS4ubmNEejesTH5a2ZR9vYLkSg44k7RULzkHLOMP/r248yxP4pD1rpSW0PxfbIpiVD3IcqrHeQhYLDRLxWGZKdWem3M06XM3BbxQoJE1dbHaQ1byXs+n6nVxlx6JOKYfgqKfG2NdWm7mmUdU7XO5ck8nULn6zBOQvX9VInrJw/iyd44sLiOx9P7PopDzJWUNXoOY+37vuAeonWcKWcO0zhjcfC5G4ta5oneK6XE/Mh26o9zGdL03hEE13ifX9PfygB3UHsLTTBxitDGDsReEUqZMXcSui+y4MhwooogyH4ATvBdQYzGpYT+y7ph3Wjr441NP4pD5nFWVWu2N5EAGBpZNOJ3nHtouxBiKyndoSTFBNxTSHHMWc4LZpdckEtGcXIa+UCFtVU0K9MUmq7g0mQ/HQIAUdaRL1oL/mltDSVdLYCTc0JThEIVRTXhts05sqP2PGWmkoPOmVKIIB4psX/qT3n/u+/5JmRWiRl/t5ix2DDHnIV1AKulrkwp7TFZU4oZQ3eOm85WeFBqblZrZRPaHQ9zHEMuaR+LA5hKYsolzizhEm72G5Y4sU6zcvvWgWmaqG3lcDgGEH2AzC//NglcWrybwmXL5flj5zZ+GvvUDjGD3kK4YO6kFBVWZ+szOM18MLDbGEJoaDeYVS3E2EkEX1bUPXa+CGtdMZTj8YiIRG87p30MaJ7KPgOSB1V/TQKWksmqHG/meILnHPRaA82ZPGesNgS7sLvWqX2EVYE85chPEdDGnx13oS2jk9hX/t1Xf+lTJ/ZP75ABeHdGNE8XbmKEoq0P7sQpQFvc3pSBchXlTu26FxLdPVHdE6e5Pxia6d2YpmgW6VC8qAo5PywmNrFdzhlrV++vfW8Xb0IKi8g0CNCLitLdd24raSKXTO0rfWMEHiGNfGqH6BAJmMcOiuONZEfj7OzDFYkEQynIvvMiiQ7c4LZjkN47cw4BQjePx08j33R35vly/BMEvb8und4ZeSAc4eM0hg//6gNKUaytoUAkJq2sbqSkkYbjWo+jA1t0nunW8bpCUrwHKdkbSEq0RwLujwQMYy8aQQZ2CyyRc9mdMJWLajHyx6iifMhytrisoxJKOagWEZZ1/AsIH9MHt945LZdjAWHLGfEbOQ+Zqhll3rTDjDmU6+iy9YXj2jbF/TJKYSPkSz6qKwgHmTvi7Lqt4yM0qz61Q1oLneve9ux9nKLQUK50WNFRv8xdDDrE2U4MCsAW4STecz7XwCzbAqvux1/gcRqQWSeGerf+y/hrD8BZW72MPYys/PrDu/3zrnVbKjK0pFyBHwcL2ZJwoWqi5G2krGNTvQFV1vvf/ceuOqakakxIpaQMbBb35dHM2WqX1kay3PvVg4va+iMSutvtGKYt8avC4fa466s2DDJNE3ejE6g5krhogEoRYZonDMEQPvjgjlr7RXSnSh/HfkBc7zJAZ7dY7ACuQ1ZkPs4HiUKl9x6H1Hgoa07nM9//2i9+qsT+qRwSYwICHpNM2xqvtQ/FRphwad06TimFlGJ2cHvca+0hfO4xQ5jyREnxD7u4dco4TcF6ZxpcEu5M48TQXIJZzkXHlK9wdz4x5USWSyk7TfkBu7z2xrrxaMKufN8sf0xRCSApJrXWTb81zo1/sRd7sRd7sRd7sRd7sRd7sRd7sRd7sRd7sRf7+2T/HzJtzoBcnLtjAAAAAElFTkSuQmCC;" vertex="1" parent="73">
                    <mxGeometry width="100" height="100" as="geometry"/>
                </mxCell>
                <mxCell id="75" value="&lt;font color=&quot;#990000&quot; face=&quot;Noto Serif JP&quot;&gt;と&lt;/font&gt;" style="text;html=1;strokeColor=none;fillColor=none;align=center;verticalAlign=middle;whiteSpace=wrap;rounded=0;fontSize=42;" vertex="1" parent="73">
                    <mxGeometry width="100" height="100" as="geometry"/>
                </mxCell>
            </root>
        </mxGraphModel>
    </diagram>
</mxfile>